{
  "accessors": [
    {
      "bufferView": 2,
      "componentType": 5126,
      "count": 26992,
      "max": [
        125.48216247558594,
        192.6247100830078,
        19.096755981445313
      ],
      "min": [
        -125.48216247558594,
        -0.09472719579935074,
        -22.063770294189453
      ],
      "type": "VEC3"
    },
    {
      "bufferView": 2,
      "byteOffset": 323904,
      "componentType": 5126,
      "count": 26992,
      "max": [
        1.0,
        1.0,
        1.0
      ],
      "min": [
        -1.0,
        -1.0,
        -1.0
      ],
      "type": "VEC3"
    },
    {
      "bufferView": 1,
      "componentType": 5126,
      "count": 26992,
      "max": [
        0.9962685704231262,
        0.9991685748100281
      ],
      "min": [
        0.0035103559494018555,
        0.0007741451263427734
      ],
      "type": "VEC2"
    },
    {
      "bufferView": 0,
      "componentType": 5125,
      "count": 129408,
      "type": "SCALAR"
    },
    {
      "bufferView": 2,
      "byteOffset": 647808,
      "componentType": 5126,
      "count": 167,
      "max": [
        5.831363201141357,
        189.82470703125,
        8.753421783447266
      ],
      "min": [
        -5.831362724304199,
        184.359130859375,
        7.1995415687561035
      ],
      "type": "VEC3"
    },
    {
      "bufferView": 2,
      "byteOffset": 649812,
      "componentType": 5126,
      "count": 167,
      "max": [
        0.7571627497673035,
        0.7571645975112915,
        1.0
      ],
      "min": [
        -0.757162868976593,
        -0.7571663856506348,
        0.6532222032546997
      ],
      "type": "VEC3"
    },
    {
      "bufferView": 1,
      "byteOffset": 215936,
      "componentType": 5126,
      "count": 167,
      "max": [
        0.9130487442016602,
        0.5770936012268066
      ],
      "min": [
        0.7065645456314087,
        0.23989000916481018
      ],
      "type": "VEC2"
    },
    {
      "bufferView": 0,
      "byteOffset": 517632,
      "componentType": 5125,
      "count": 804,
      "type": "SCALAR"
    }
  ],
  "asset": {
    "extras": {
      "author": "Eddie Roach (https://sketchfab.com/eddie.roach)",
      "license": "CC-BY-4.0 (http://creativecommons.org/licenses/by/4.0/)",
      "source": "https://sketchfab.com/3d-models/super-tactical-droid-clone-wars-617367b06c9d438d81c6a883df9c4014",
      "title": "Super Tactical Droid - Clone Wars"
    },
    "generator": "Sketchfab-12.68.0",
    "version": "2.0"
  },
  "bufferViews": [
    {
      "buffer": 0,
      "byteLength": 520848,
      "name": "floatBufferViews",
      "target": 34963
    },
    {
      "buffer": 0,
      "byteLength": 217272,
      "byteOffset": 520848,
      "byteStride": 8,
      "name": "floatBufferViews",
      "target": 34962
    },
    {
      "buffer": 0,
      "byteLength": 651816,
      "byteOffset": 738120,
      "byteStride": 12,
      "name": "floatBufferViews",
      "target": 34962
    }
  ],
  "buffers": [
    {
      "byteLength": 1389936,
      "uri": "scene.bin"
    }
  ],
  "images": [
    {
      "uri": "textures/SuperTD_mat_baseColor.png"
    }
  ],
  "materials": [
    {
      "doubleSided": true,
      "name": "SuperTD_mat",
      "pbrMetallicRoughness": {
        "baseColorTexture": {
          "index": 0
        },
        "metallicFactor": 0.0,
        "roughnessFactor": 0.8657309553655766
      }
    },
    {
      "doubleSided": true,
      "emissiveFactor": [
        0.6941433685475026,
        0.688423351567047,
        0.41310170549689335
      ],
      "name": "Eyes_mat",
      "pbrMetallicRoughness": {
        "baseColorFactor": [
          0.734840672886204,
          0.7579697625090448,
          0.2573461394773055,
          1.0
        ],
        "metallicFactor": 0.0,
        "roughnessFactor": 0.8040408205773457
      }
    }
  ],
  "meshes": [
    {
      "name": "Chest.001_SuperTD_mat_0",
      "primitives": [
        {
          "attributes": {
            "NORMAL": 1,
            "POSITION": 0,
            "TEXCOORD_0": 2
          },
          "indices": 3,
          "material": 0,
          "mode": 4
        }
      ]
    },
    {
      "name": "Chest.001_Eyes_mat_0",
      "primitives": [
        {
          "attributes": {
            "NORMAL": 5,
            "POSITION": 4,
            "TEXCOORD_0": 6
          },
          "indices": 7,
          "material": 1,
          "mode": 4
        }
      ]
    }
  ],
  "nodes": [
    {
      "children": [
        1
      ],
      "matrix": [
        1.0,
        0.0,
        0.0,
        0.0,
        0.0,
        2.220446049250313e-16,
        -1.0,
        0.0,
        0.0,
        1.0,
        2.220446049250313e-16,
        0.0,
        0.0,
        0.0,
        0.0,
        1.0
      ],
      "name": "Sketchfab_model"
    },
    {
      "children": [
        2
      ],
      "matrix": [
        0.009999999776482582,
        0.0,
        0.0,
        0.0,
        0.0,
        0.0,
        0.009999999776482582,
        0.0,
        0.0,
        -0.009999999776482582,
        0.0,
        0.0,
        0.0,
        0.0,
        0.0,
        1.0
      ],
      "name": "1b0885b7775c47389aa5bbe824141294.fbx"
    },
    {
      "children": [
        3
      ],
      "name": "RootNode"
    },
    {
      "children": [
        4,
        5
      ],
      "name": "Chest.001"
    },
    {
      "mesh": 0,
      "name": "Chest.001_SuperTD_mat_0"
    },
    {
      "mesh": 1,
      "name": "Chest.001_Eyes_mat_0"
    }
  ],
  "samplers": [
    {
      "magFilter": 9729,
      "minFilter": 9987,
      "wrapS": 10497,
      "wrapT": 10497
    }
  ],
  "scene": 0,
  "scenes": [
    {
      "name": "Sketchfab_Scene",
      "nodes": [
        0
      ]
    }
  ],
  "textures": [
    {
      "sampler": 0,
      "source": 0
    }
  ]
}
